<svg  viewBox="0 0 41 41" fill="none" xmlns="http://www.w3.org/2000/svg">
<g clip-path="url(#clip0)">
<path d="M37.8284 0.979492H2.24249C1.02393 0.980103 0.0360718 1.96857 0.036377 3.18744V38.7734C0.0369874 39.9919 1.02545 40.9798 2.24432 40.9795H37.8284C39.0476 40.9798 40.0361 39.9916 40.0364 38.7725C40.0364 38.7722 40.0364 38.7719 40.0364 38.7715V3.18561C40.0358 1.96704 39.0473 0.979187 37.8284 0.979492Z" fill="#4267B2"/>
<path d="M22.2134 38.8409V23.3721H27.4282L28.2095 17.3174H22.2134V13.4612C22.2134 11.7123 22.6989 10.5206 25.2069 10.5206H28.3853V5.11987C27.8323 5.04633 25.935 4.88184 23.7274 4.88184C19.118 4.88184 15.9634 7.69434 15.9634 12.8616V17.3174H10.7681V23.3721H15.9634V38.8409H22.2134Z" fill="white"/>
</g>
<defs>
<clipPath id="clip0">
<rect x="0.036377" y="0.979492" width="40" height="40" rx="5" fill="white"/>
</clipPath>
</defs>
</svg>
