<svg width="40" height="40" viewBox="0 0 40 40" fill="none" xmlns="http://www.w3.org/2000/svg">
<g clip-path="url(#clip0)">
<path d="M37.7921 7.0689e-08H2.20612C0.987549 0.000610422 -0.000305105 0.989075 7.0689e-08 2.20795V37.7939C0.000610422 39.0125 0.989075 40.0003 2.20795 40H37.7921C39.0112 40.0003 39.9997 39.0121 40 37.793C40 37.7927 40 37.7924 40 37.7921V2.20612C39.9994 0.987549 39.0109 -0.000305105 37.7921 7.0689e-08Z" fill="#4267B2"/>
<path d="M22.177 37.8615V22.3928H27.3919L28.1731 16.3381H22.177V12.4819C22.177 10.7329 22.6626 9.5412 25.1705 9.5412H28.3489V4.1405C27.7959 4.06696 25.8986 3.90247 23.691 3.90247C19.0816 3.90247 15.927 6.71497 15.927 11.8822V16.3381H10.7317V22.3928H15.927V37.8615H22.177Z" fill="white"/>
</g>
<defs>
<clipPath id="clip0">
<rect width="40" height="40" rx="5" fill="white"/>
</clipPath>
</defs>
</svg>
