<svg width="43" height="43" viewBox="0 0 43 43" fill="none" xmlns="http://www.w3.org/2000/svg">
<rect x="0.658447" y="0.979492" width="42" height="42" rx="5" fill="white"/>
<g clip-path="url(#clip0)">
<path d="M12.0959 21.9795C12.0959 20.1959 12.5874 18.5251 13.4411 17.0944V11.0259H7.37256C4.96401 14.1539 3.65845 17.9662 3.65845 21.9795C3.65845 25.9928 4.96401 29.8051 7.37256 32.9331H13.4411V26.8646C12.5874 25.434 12.0959 23.7631 12.0959 21.9795Z" fill="#FBBD00"/>
<path d="M21.6584 31.542L17.4397 35.7608L21.6584 39.9795C25.6718 39.9795 29.484 38.674 32.6121 36.2654V30.2034H26.55C25.1069 31.0602 23.429 31.542 21.6584 31.542Z" fill="#0F9D58"/>
<path d="M13.4411 26.8645L7.37256 32.933C7.84942 33.5523 8.36868 34.1454 8.93054 34.7074C12.3303 38.1071 16.8505 39.9794 21.6584 39.9794V31.5419C18.1693 31.5419 15.1112 29.6632 13.4411 26.8645Z" fill="#31AA52"/>
<path d="M39.6584 21.9794C39.6584 20.8843 39.5593 19.7871 39.3637 18.7185L39.2054 17.8538H21.6584V26.2913H30.198C29.3688 27.9409 28.0937 29.2867 26.5499 30.2033L32.612 36.2654C33.2313 35.7885 33.8244 35.2692 34.3863 34.7074C37.7861 31.3076 39.6584 26.7874 39.6584 21.9794Z" fill="#3C79E6"/>
<path d="M28.4202 15.2177L29.1659 15.9635L35.1322 9.99733L34.3864 9.25159C30.9867 5.85184 26.4665 3.97949 21.6584 3.97949L17.4397 8.19824L21.6584 12.417C24.2126 12.417 26.614 13.4116 28.4202 15.2177Z" fill="#CF2D48"/>
<path d="M21.6585 12.417V3.97949C16.8505 3.97949 12.3303 5.85184 8.93048 9.25152C8.36862 9.81339 7.84936 10.4065 7.3725 11.0259L13.441 17.0944C15.1112 14.2957 18.1693 12.417 21.6585 12.417Z" fill="#EB4132"/>
</g>
<defs>
<clipPath id="clip0">
<rect width="36" height="36" fill="white" transform="translate(3.65845 3.97949)"/>
</clipPath>
</defs>
</svg>
