<svg width="42" height="42" viewBox="0 0 42 42" fill="none" xmlns="http://www.w3.org/2000/svg">
<rect width="42" height="42" rx="5" fill="white"/>
<path d="M11.4375 21C11.4375 19.2164 11.9289 17.5456 12.7826 16.1149V10.0464H6.71412C4.30556 13.1744 3 16.9867 3 21C3 25.0133 4.30556 28.8256 6.71412 31.9537H12.7826V25.8851C11.9289 24.4545 11.4375 22.7836 11.4375 21Z" fill="#FBBD00"/>
<path d="M21 30.5626L16.7812 34.7813L21 39.0001C25.0134 39.0001 28.8256 37.6945 31.9536 35.2859V29.2239H25.8916C24.4484 30.0807 22.7705 30.5626 21 30.5626Z" fill="#0F9D58"/>
<path d="M12.7826 25.885L6.71411 31.9535C7.19097 32.5729 7.71023 33.1659 8.2721 33.7279C11.6718 37.1276 16.192 38.9999 21 38.9999V30.5624C17.5108 30.5624 14.4527 28.6837 12.7826 25.885Z" fill="#31AA52"/>
<path d="M39 21C39 19.9049 38.9009 18.8078 38.7053 17.7392L38.547 16.8744H21V25.3119H29.5396C28.7103 26.9615 27.4353 28.3073 25.8915 29.2239L31.9536 35.286C32.5729 34.8091 33.166 34.2899 33.7279 33.728C37.1276 30.3282 39 25.808 39 21Z" fill="#3C79E6"/>
<path d="M27.7617 14.2383L28.5075 14.984L34.4737 9.01784L33.728 8.2721C30.3282 4.87235 25.808 3 21 3L16.7812 7.21875L21 11.4375C23.5542 11.4375 25.9556 12.4321 27.7617 14.2383Z" fill="#CF2D48"/>
<path d="M21 11.4375V3C16.192 3 11.6719 4.87235 8.27204 8.27203C7.71017 8.8339 7.19091 9.42698 6.71405 10.0464L12.7826 16.1149C14.4527 13.3162 17.5108 11.4375 21 11.4375Z" fill="#EB4132"/>
</svg>
