<svg width="40" height="40" viewBox="0 0 40 40" fill="none" xmlns="http://www.w3.org/2000/svg">
<g clip-path="url(#clip0)">
<path d="M2.49999 2.72178C-0.643342 5.98678 -8.68738e-06 9.45512 -8.68738e-06 19.9918C-8.68738e-06 28.7418 -1.52668 37.5135 6.46332 39.5784C8.95832 40.2201 31.065 40.2201 33.5567 39.5751C36.8833 38.7168 39.59 36.0184 39.96 31.3134C40.0117 30.6568 40.0117 9.33845 39.9583 8.66845C39.565 3.65678 36.48 0.768451 32.415 0.183451C31.4833 0.0484514 31.2967 0.00845134 26.5167 0.00011801C9.56166 0.00845134 5.84499 -0.746549 2.49999 2.72178Z" fill="url(#paint0_linear)"/>
<path d="M19.9967 5.23166C13.945 5.23166 8.19833 4.69333 6.00333 10.3267C5.09667 12.6533 5.22833 15.675 5.22833 20.0017C5.22833 23.7983 5.10667 27.3667 6.00333 29.675C8.19333 35.3117 13.9867 34.7717 19.9933 34.7717C25.7883 34.7717 31.7633 35.375 33.985 29.675C34.8933 27.325 34.76 24.3483 34.76 20.0017C34.76 14.2317 35.0783 10.5067 32.28 7.70999C29.4467 4.87666 25.615 5.23166 19.99 5.23166H19.9967ZM18.6733 7.89333C31.2967 7.87333 32.9033 6.47 32.0167 25.965C31.7017 32.86 26.4517 32.1033 19.9983 32.1033C8.23167 32.1033 7.89333 31.7667 7.89333 19.995C7.89333 8.08666 8.82667 7.89999 18.6733 7.88999V7.89333ZM27.88 10.345C26.9017 10.345 26.1083 11.1383 26.1083 12.1167C26.1083 13.095 26.9017 13.8883 27.88 13.8883C28.8583 13.8883 29.6517 13.095 29.6517 12.1167C29.6517 11.1383 28.8583 10.345 27.88 10.345ZM19.9967 12.4167C15.8083 12.4167 12.4133 15.8133 12.4133 20.0017C12.4133 24.19 15.8083 27.585 19.9967 27.585C24.185 27.585 27.5783 24.19 27.5783 20.0017C27.5783 15.8133 24.185 12.4167 19.9967 12.4167ZM19.9967 15.0783C26.505 15.0783 26.5133 24.925 19.9967 24.925C13.49 24.925 13.48 15.0783 19.9967 15.0783Z" fill="white"/>
</g>
<defs>
<linearGradient id="paint0_linear" x1="2.57669" y1="37.4453" x2="39.7525" y2="5.27008" gradientUnits="userSpaceOnUse">
<stop stop-color="#FFDD55"/>
<stop offset="0.5" stop-color="#FF543E"/>
<stop offset="1" stop-color="#C837AB"/>
</linearGradient>
<clipPath id="clip0">
<rect width="40" height="40" fill="white"/>
</clipPath>
</defs>
</svg>
