<svg width="41" height="41" viewBox="0 0 41 41" fill="none" xmlns="http://www.w3.org/2000/svg">
<g clip-path="url(#clip0)">
<path d="M3.41039 3.70115C0.267058 6.96615 0.910392 10.4345 0.910392 20.9712C0.910392 29.7212 -0.616275 38.4928 7.37372 40.5578C9.86872 41.1995 31.9754 41.1995 34.4671 40.5545C37.7937 39.6962 40.5004 36.9978 40.8704 32.2928C40.9221 31.6362 40.9221 10.3178 40.8687 9.64782C40.4754 4.63615 37.3904 1.74782 33.3254 1.16282C32.3937 1.02782 32.2071 0.987821 27.4271 0.979488C10.4721 0.987821 6.75539 0.232821 3.41039 3.70115Z" fill="url(#paint0_linear)"/>
<path d="M20.9071 6.21103C14.8554 6.21103 9.10873 5.6727 6.91373 11.306C6.00707 13.6327 6.13873 16.6544 6.13873 20.981C6.13873 24.7777 6.01707 28.346 6.91373 30.6544C9.10373 36.291 14.8971 35.751 20.9037 35.751C26.6987 35.751 32.6737 36.3544 34.8954 30.6544C35.8037 28.3044 35.6704 25.3277 35.6704 20.981C35.6704 15.211 35.9887 11.486 33.1904 8.68936C30.3571 5.85603 26.5254 6.21103 20.9004 6.21103H20.9071ZM19.5837 8.8727C32.2071 8.8527 33.8137 7.44937 32.9271 26.9444C32.6121 33.8394 27.3621 33.0827 20.9087 33.0827C9.14207 33.0827 8.80373 32.746 8.80373 20.9744C8.80373 9.06603 9.73707 8.87936 19.5837 8.86936V8.8727ZM28.7904 11.3244C27.8121 11.3244 27.0187 12.1177 27.0187 13.096C27.0187 14.0744 27.8121 14.8677 28.7904 14.8677C29.7687 14.8677 30.5621 14.0744 30.5621 13.096C30.5621 12.1177 29.7687 11.3244 28.7904 11.3244ZM20.9071 13.396C16.7187 13.396 13.3237 16.7927 13.3237 20.981C13.3237 25.1694 16.7187 28.5644 20.9071 28.5644C25.0954 28.5644 28.4887 25.1694 28.4887 20.981C28.4887 16.7927 25.0954 13.396 20.9071 13.396ZM20.9071 16.0577C27.4154 16.0577 27.4237 25.9044 20.9071 25.9044C14.4004 25.9044 14.3904 16.0577 20.9071 16.0577Z" fill="white"/>
</g>
<defs>
<linearGradient id="paint0_linear" x1="3.48709" y1="38.4246" x2="40.6629" y2="6.24945" gradientUnits="userSpaceOnUse">
<stop stop-color="#FFDD55"/>
<stop offset="0.5" stop-color="#FF543E"/>
<stop offset="1" stop-color="#C837AB"/>
</linearGradient>
<clipPath id="clip0">
<rect width="40" height="40" fill="white" transform="translate(0.9104 0.979492)"/>
</clipPath>
</defs>
</svg>
