<svg width="40" height="40" viewBox="0 0 40 40" fill="none" xmlns="http://www.w3.org/2000/svg">
<g clip-path="url(#clip0)">
<path d="M39.9609 11.7601C39.8672 9.63475 39.5235 8.17359 39.0311 6.90748C38.5232 5.56353 37.7418 4.36029 36.7181 3.36003C35.7178 2.34421 34.5066 1.55487 33.1782 1.05489C31.9048 0.562549 30.4513 0.218854 28.3259 0.125146C26.1847 0.0235031 25.5049 0 20.0742 0C14.6434 0 13.9637 0.0235031 11.8304 0.11721C9.70504 0.210918 8.24388 0.554918 6.97806 1.04696C5.63381 1.55487 4.43057 2.33627 3.43031 3.36003C2.41449 4.36029 1.62546 5.57146 1.12518 6.89985C0.632831 8.17359 0.289136 9.62682 0.195428 11.7522C0.0937851 13.8934 0.070282 14.5732 0.070282 20.0039C0.070282 25.4347 0.0937851 26.1144 0.187492 28.2477C0.2812 30.3731 0.6252 31.8342 1.11754 33.1003C1.62546 34.4443 2.41449 35.6475 3.43031 36.6478C4.43057 37.6636 5.64174 38.4529 6.97013 38.9529C8.24388 39.4453 9.6971 39.789 11.8228 39.8827C13.9557 39.9767 14.6358 39.9999 20.0666 39.9999C25.4973 39.9999 26.1771 39.9767 28.3104 39.8827C30.4357 39.789 31.8969 39.4453 33.1627 38.9529C35.8509 37.9136 37.9762 35.7882 39.0156 33.1003C39.5076 31.8266 39.8516 30.3731 39.9453 28.2477C40.039 26.1144 40.0625 25.4347 40.0625 20.0039C40.0625 14.5732 40.0546 13.8934 39.9609 11.7601ZM36.3588 28.0914C36.2727 30.0449 35.9446 31.0998 35.6711 31.8031C34.999 33.5457 33.616 34.9287 31.8734 35.6008C31.1701 35.8743 30.1076 36.2024 28.1617 36.2882C26.0519 36.3822 25.4192 36.4054 20.0821 36.4054C14.7451 36.4054 14.1044 36.3822 12.0022 36.2882C10.0487 36.2024 8.99384 35.8743 8.29058 35.6008C7.4234 35.2803 6.63406 34.7724 5.99337 34.1082C5.32918 33.4596 4.82127 32.6782 4.50077 31.811C4.22728 31.1078 3.89915 30.0449 3.81338 28.0994C3.71937 25.9896 3.69617 25.3565 3.69617 20.0195C3.69617 14.6824 3.71937 14.0417 3.81338 11.9399C3.89915 9.98639 4.22728 8.93149 4.50077 8.22823C4.82127 7.36075 5.32918 6.57172 6.00131 5.93072C6.64963 5.26653 7.43103 4.75862 8.29851 4.43843C9.00177 4.16494 10.0646 3.83681 12.0102 3.75073C14.12 3.65703 14.753 3.63352 20.0898 3.63352C25.4347 3.63352 26.0675 3.65703 28.1696 3.75073C30.1231 3.83681 31.178 4.16494 31.8813 4.43843C32.7485 4.75862 33.5378 5.26653 34.1785 5.93072C34.8427 6.57935 35.3506 7.36075 35.6711 8.22823C35.9446 8.93149 36.2727 9.99402 36.3588 11.9399C36.4525 14.0497 36.476 14.6824 36.476 20.0195C36.476 25.3565 36.4525 25.9816 36.3588 28.0914Z" fill="black"/>
<path d="M20.0742 9.72845C14.4014 9.72845 9.79874 14.3308 9.79874 20.0039C9.79874 25.677 14.4014 30.2793 20.0742 30.2793C25.7473 30.2793 30.3496 25.677 30.3496 20.0039C30.3496 14.3308 25.7473 9.72845 20.0742 9.72845ZM20.0742 26.6693C16.394 26.6693 13.4088 23.6844 13.4088 20.0039C13.4088 16.3234 16.394 13.3385 20.0742 13.3385C23.7547 13.3385 26.7396 16.3234 26.7396 20.0039C26.7396 23.6844 23.7547 26.6693 20.0742 26.6693V26.6693Z" fill="black"/>
<path d="M33.1551 9.32221C33.1551 10.6469 32.0809 11.7211 30.7559 11.7211C29.4312 11.7211 28.3571 10.6469 28.3571 9.32221C28.3571 7.99719 29.4312 6.92337 30.7559 6.92337C32.0809 6.92337 33.1551 7.99719 33.1551 9.32221V9.32221Z" fill="black"/>
</g>
<defs>
<clipPath id="clip0">
<rect width="40" height="40" fill="white"/>
</clipPath>
</defs>
</svg>
