<svg width="40" height="40" viewBox="0 0 40 40" fill="none" xmlns="http://www.w3.org/2000/svg">
<path d="M40 0H0V40H40V0Z" fill="#44678D"/>
<path d="M10.3623 12.173C11.3209 14.5403 12.5358 16.7724 14.136 18.7761C14.3482 19.0427 14.6157 19.2798 14.8976 19.4728C15.3092 19.7555 15.6976 19.6562 15.865 19.1853C16.042 18.6911 16.2045 17.6897 16.2141 17.1708C16.2406 15.8149 16.2102 14.9263 16.1373 13.572C16.0901 12.7047 15.7818 11.9431 14.5059 11.7132C14.1119 11.642 14.0753 11.3176 14.3285 10.9941C14.8554 10.3206 15.5896 10.2132 16.3856 10.1707C17.6759 10.1011 18.9708 10.1579 20.2627 10.1707C20.7889 10.1756 21.3182 10.218 21.8364 10.3309C22.5123 10.4783 22.8743 10.9524 22.9857 11.6123C23.0433 11.9527 23.073 12.3026 23.0649 12.647C23.0313 14.127 22.96 15.6062 22.9432 17.0854C22.936 17.666 22.9784 18.2611 23.1026 18.8266C23.2764 19.6146 23.8129 19.8124 24.3616 19.243C25.0583 18.5199 25.6726 17.7062 26.2492 16.8797C27.2967 15.3764 28.0791 13.7267 28.7527 12.0257C29.101 11.148 29.3678 10.9573 30.3119 10.955C32.0867 10.9509 33.8614 10.9494 35.6361 10.955C35.9509 10.9566 36.28 10.9862 36.5771 11.0808C37.0592 11.2345 37.2507 11.6277 37.1377 12.1267C36.8742 13.296 36.2424 14.2898 35.5656 15.2453C34.4796 16.7782 33.3416 18.2742 32.2301 19.7894C32.0883 19.9824 31.9634 20.1882 31.8472 20.3972C31.4315 21.1485 31.4604 21.5697 32.0666 22.1951C33.0317 23.1906 34.0648 24.122 34.9994 25.1447C35.6786 25.8887 36.3072 26.6959 36.8454 27.5457C37.5262 28.6204 37.1057 29.6327 35.834 29.8129C35.0339 29.9258 31.1258 29.8137 30.9239 29.8129C29.8732 29.8081 28.9522 29.4437 28.2105 28.7301C27.3856 27.9357 26.636 27.0643 25.8439 26.2354C25.6053 25.9855 25.3506 25.7461 25.0759 25.537C24.428 25.0429 23.7921 25.1526 23.4894 25.9135C23.2307 26.567 23.0073 28.2832 22.9968 28.4298C22.9424 29.1962 22.4547 29.6847 21.5961 29.7319C19.1174 29.8665 16.7156 29.5902 14.478 28.3913C12.5816 27.3758 11.0672 25.9399 9.75532 24.2653C7.67146 21.6055 6.02549 18.6817 4.52276 15.6722C4.44596 15.5183 2.92393 12.2795 2.88302 12.1265C2.74707 11.6143 2.8739 11.125 3.3067 10.9566C3.5765 10.8516 8.59473 10.9562 8.6782 10.9607C9.47893 11.004 10.025 11.3419 10.3623 12.173Z" fill="white"/>
</svg>
