<svg width="41" height="41" viewBox="0 0 41 41" fill="none" xmlns="http://www.w3.org/2000/svg">
<g clip-path="url(#clip0)">
<path d="M40.7844 0.979492H0.784424V40.9795H40.7844V0.979492Z" fill="#44678D"/>
<path d="M11.1467 13.1525C12.1053 15.5198 13.3202 17.7519 14.9204 19.7556C15.1326 20.0222 15.4002 20.2593 15.682 20.4523C16.0936 20.735 16.482 20.6357 16.6494 20.1648C16.8264 19.6706 16.9889 18.6691 16.9986 18.1502C17.025 16.7944 16.9946 15.9058 16.9218 14.5515C16.8745 13.6842 16.5662 12.9226 15.2904 12.6927C14.8964 12.6215 14.8598 12.2971 15.1129 11.9736C15.6399 11.3001 16.374 11.1927 17.1701 11.1502C18.4603 11.0805 19.7553 11.1374 21.0471 11.1502C21.5733 11.1551 22.1026 11.1975 22.6208 11.3104C23.2967 11.4578 23.6587 11.9319 23.7701 12.5918C23.8278 12.9322 23.8574 13.2821 23.8494 13.6265C23.8157 15.1065 23.7445 16.5857 23.7276 18.0649C23.7204 18.6455 23.7628 19.2406 23.887 19.806C24.0608 20.5941 24.5973 20.7919 25.146 20.2225C25.8427 19.4994 26.457 18.6857 27.0336 17.8592C28.0811 16.3559 28.8635 14.7062 29.5371 13.0052C29.8855 12.1275 30.1522 11.9368 31.0963 11.9345C32.8711 11.9304 34.6458 11.9289 36.4205 11.9345C36.7353 11.936 37.0644 11.9657 37.3615 12.0602C37.8437 12.214 38.0351 12.6072 37.9221 13.1062C37.6586 14.2755 37.0268 15.2693 36.3501 16.2248C35.2641 17.7576 34.126 19.2537 33.0145 20.7689C32.8727 20.9619 32.7478 21.1677 32.6316 21.3767C32.216 22.1279 32.2448 22.5492 32.8511 23.1746C33.8161 24.1701 34.8493 25.1015 35.7839 26.1242C36.463 26.8682 37.0916 27.6754 37.6299 28.5251C38.3106 29.5999 37.8901 30.6122 36.6184 30.7924C35.8183 30.9053 31.9102 30.7932 31.7083 30.7924C30.6576 30.7876 29.7366 30.4232 28.9949 29.7096C28.1701 28.9152 27.4204 28.0438 26.6284 27.2149C26.3897 26.965 26.135 26.7256 25.8604 26.5165C25.2124 26.0224 24.5765 26.1321 24.2738 26.893C24.0152 27.5465 23.7917 29.2627 23.7812 29.4093C23.7268 30.1757 23.2391 30.6642 22.3805 30.7114C19.9018 30.846 17.5 30.5697 15.2624 29.3708C13.366 28.3553 11.8516 26.9194 10.5397 25.2448C8.45589 22.585 6.80992 19.6612 5.30719 16.6516C5.23039 16.4978 3.70835 13.259 3.66745 13.106C3.53149 12.5938 3.65832 12.1045 4.09112 11.936C4.36093 11.8311 9.37915 11.9357 9.46262 11.9402C10.2634 11.9835 10.8094 12.3214 11.1467 13.1525Z" fill="white"/>
</g>
<defs>
<clipPath id="clip0">
<rect x="0.784424" y="0.979492" width="40" height="40" rx="7" fill="white"/>
</clipPath>
</defs>
</svg>
